<svg width="36" height="24" viewBox="0 0 36 24" fill="none" xmlns="http://www.w3.org/2000/svg">
<path d="M33.3105 0H2.41393C1.82862 0 1.26729 0.210714 0.853416 0.585786C0.439543 0.960859 0.207031 1.46957 0.207031 2V22C0.207031 22.5304 0.439543 23.0391 0.853416 23.4142C1.26729 23.7893 1.82862 24 2.41393 24H33.3105C33.8958 24 34.4571 23.7893 34.871 23.4142C35.2848 23.0391 35.5174 22.5304 35.5174 22V2C35.5174 1.46957 35.2848 0.960859 34.871 0.585786C34.4571 0.210714 33.8958 0 33.3105 0V0ZM31.6112 22H4.24565L11.9698 14.76L10.3808 13.37L2.41393 20.84V3.52L16.1298 15.89C16.5433 16.2625 17.1026 16.4716 17.6856 16.4716C18.2687 16.4716 18.828 16.2625 19.2415 15.89L33.3105 3.21V20.71L25.1891 13.35L23.6332 14.76L31.6112 22ZM3.85944 2H31.5229L17.6856 14.47L3.85944 2Z" fill="#293286"/>
</svg>
