<svg width="252" height="42" viewBox="0 0 252 42" fill="none" xmlns="http://www.w3.org/2000/svg">
<path d="M67.104 29.0653C65.088 31.1957 62.496 32.1087 59.6161 32.1087C52.272 32.1087 49.248 26.7827 49.248 21.4565C49.248 15.9783 52.5601 10.5 59.6161 10.5C62.208 10.5 64.8 11.5652 66.816 13.6957L64.368 16.2827C63.072 14.913 61.344 14.3044 59.6161 14.3044C54.864 14.3044 52.848 18.1087 52.848 21.4565C52.848 24.9565 54.72 28.4566 59.6161 28.4566C61.344 28.4566 63.216 27.6956 64.512 26.3261L67.104 29.0653Z" fill="white"/>
<path d="M88.4159 21.4565C88.4159 26.7827 85.2479 32.1087 78.3359 32.1087C71.4239 32.1087 68.2559 26.9348 68.2559 21.4565C68.2559 15.9783 71.5679 10.5 78.3359 10.5C85.1038 10.5 88.5599 15.9783 88.4159 21.4565ZM71.9999 21.4565C72.1439 24.8044 73.8719 28.4566 78.4799 28.4566C83.0878 28.4566 84.8159 24.8044 84.9599 21.4565C84.9599 17.9566 83.2319 14 78.4799 14C73.7279 14 71.8559 17.9566 71.9999 21.4565Z" fill="white"/>
<path d="M108.432 21.1521C108.576 26.3261 105.552 31.6521 98.6401 31.6521C96.192 31.6521 93.3121 31.6521 91.0081 31.6521V10.9565C93.456 10.9565 96.3361 10.9565 98.6401 10.9565C105.264 10.9565 108.288 15.9783 108.432 21.1521ZM94.6081 27.8478H98.6401C103.104 27.8478 104.832 24.3478 104.832 21C104.688 17.8043 102.96 14.6088 98.6401 14.6088H94.6081V27.8478Z" fill="white"/>
<path d="M125.423 31.6521H110.736C110.736 24.8044 110.736 17.8043 110.736 10.9565H125.423V14.7609H114.48V19.4782H125.136V23.1305H114.48V27.8478H125.423V31.6521Z" fill="white"/>
<path d="M147.168 14.9131C145.728 12.4783 143.424 12.1739 141.12 12.1739C138.816 12.1739 135.216 13.087 135.216 16.4348C135.216 19.0217 137.952 19.6305 141.264 20.3913C145.008 21.1522 148.896 21.9131 148.896 26.3261C148.896 31.0435 144.432 32.1087 141.12 32.1087C138.096 32.1087 134.64 30.7392 133.056 27.5435L134.352 26.7827C135.503 29.3696 138.672 30.5869 140.976 30.5869C143.424 30.5869 147.168 29.8261 147.168 26.1739C147.168 23.1305 144 22.3696 140.688 21.7608C137.088 21 133.487 20.2392 133.487 16.4348C133.632 12.0218 137.952 10.6522 141.12 10.6522C143.856 10.6522 146.304 11.1087 148.32 14.1522L147.168 14.9131Z" fill="white"/>
<path d="M171.072 21.3044C171.072 26.7827 167.759 31.9565 161.136 31.9565C154.512 31.9565 151.2 26.6304 151.2 21.1521C151.2 15.5217 154.512 10.5 161.136 10.5C167.759 10.6521 171.072 15.674 171.072 21.3044ZM152.784 21.3044C152.784 26.0217 155.663 30.587 161.136 30.587C166.751 30.587 169.632 26.0217 169.632 21.3044C169.632 16.4348 166.896 12.1739 161.136 12.1739C155.376 12.1739 152.784 16.4348 152.784 21.3044Z" fill="white"/>
<path d="M190.8 28.7609C188.784 30.8913 186.192 31.8044 183.6 31.8044C176.976 31.8044 173.52 26.9348 173.52 21.3044C173.52 15.8261 176.831 10.6522 183.6 10.6522C186.192 10.6522 188.784 11.7174 190.8 13.6957L189.792 14.6087C188.064 12.7826 185.903 12.0218 183.744 12.0218C177.984 12.0218 175.104 16.2827 175.104 21.3044C175.104 26.1739 178.128 30.4348 183.744 30.4348C185.903 30.4348 188.208 29.5217 189.935 27.8478L190.8 28.7609Z" fill="white"/>
<path d="M194.4 31.6521V10.9565H195.84V31.6521H194.4Z" fill="white"/>
<path d="M201.744 20.5435H213.264V22.0652H201.744V30.2826H214.127V31.8044H200.304V10.9565H213.84V12.4783H201.744V20.5435Z" fill="white"/>
<path d="M224.208 12.3261H217.152V10.9565H232.848V12.3261H225.792V31.6521H224.208V12.3261Z" fill="white"/>
<path d="M242.784 23.2826L235.152 10.9565H236.88L243.504 21.9131L250.128 10.9565H251.856L244.224 23.2826V31.5H242.64V23.2826H242.784Z" fill="white"/>
<path d="M17.9066 42L0 31.1956V10.1956L17.9066 0L36.4528 10.1956V31.1956L17.9066 42ZM2.71797 29.6739L17.9066 38.9566L33.7348 29.6739V11.5652L17.9066 2.8913L2.71797 11.5652V29.6739Z" fill="white"/>
<path d="M12.6251 24.3478L11.0411 26.0217L6.57715 21.3044V21L11.0411 16.2826L12.6251 17.9566V18.1087L9.60115 21.1521L12.6251 24.3478Z" fill="white"/>
<path d="M22.4172 12.0218L15.9372 29.3696H13.4893L19.9692 12.0218H22.4172Z" fill="white"/>
<path d="M26.4492 21.3044L23.4252 18.2609V18.1087L25.0092 16.4348L29.4732 21.1523V21.4565L25.0092 26.174L23.4252 24.5001V24.3478L26.4492 21.3044Z" fill="white"/>
</svg>
