<svg width="94" height="109" viewBox="0 0 94 109" fill="none" xmlns="http://www.w3.org/2000/svg">
<path d="M45.8298 108.163L0 80.3386V26.257L45.8298 0L93.2966 26.257V80.3386L45.8298 108.163ZM6.95632 76.4198L45.8298 100.326L86.34 76.4198V29.7841L45.8298 7.44602L6.95632 29.7841V76.4198Z" fill="#293286"/>
<path d="M29.8624 62.7032L25.3613 67.0141L12.6763 54.8654V54.0815L25.3613 41.9326L29.8624 46.2437V46.6356L21.2693 54.4733L29.8624 62.7032Z" fill="#293286"/>
<path d="M57.7024 30.9629L39.2887 75.6395H32.3325L50.7462 30.9629H57.7024Z" fill="#293286"/>
<path d="M69.1468 54.8593L60.5537 47.0214V46.6296L65.0549 42.3188L77.7398 54.4675V55.2512L65.0549 67.3998L60.5537 63.0891V62.697L69.1468 54.8593Z" fill="#293286"/>
</svg>
