<svg width="29" height="26" viewBox="0 0 29 26" fill="none" xmlns="http://www.w3.org/2000/svg">
<path d="M25.3898 26H25.2022C3.51948 24.87 0.440855 8.29 0.0105101 3.23C-0.0241654 2.83658 0.0271597 2.44082 0.161544 2.06541C0.295929 1.69 0.510732 1.3423 0.793646 1.04225C1.07656 0.7422 1.42202 0.495688 1.81025 0.316839C2.19847 0.137991 2.62181 0.0303218 3.05603 9.37591e-07H9.13603C9.57802 -0.000386826 10.01 0.119511 10.3759 0.344163C10.7418 0.568815 11.0249 0.88787 11.1884 1.26L12.8657 5C13.0272 5.36355 13.0672 5.76208 12.9809 6.14609C12.8946 6.5301 12.6857 6.88267 12.3802 7.16L10.0298 9.31C10.397 11.2007 11.3961 12.9437 12.892 14.303C14.388 15.6622 16.3086 16.5723 18.394 16.91L20.7884 14.76C21.0991 14.4862 21.4918 14.3013 21.9176 14.2283C22.3434 14.1554 22.7835 14.1977 23.1829 14.35L27.3429 15.86C27.7474 16.0129 28.0924 16.2714 28.3341 16.6027C28.5758 16.9339 28.7033 17.3229 28.7002 17.72V23C28.7002 23.7956 28.3514 24.5587 27.7306 25.1213C27.1098 25.6839 26.2678 26 25.3898 26ZM3.32085 2C3.0282 2 2.74754 2.10536 2.5406 2.29289C2.33366 2.48043 2.21741 2.73478 2.21741 3V3.08C2.72499 9 5.98016 23 25.3236 24C25.4686 24.0081 25.6139 23.9902 25.7512 23.9473C25.8885 23.9045 26.0151 23.8374 26.1238 23.7501C26.2325 23.6628 26.321 23.5568 26.3844 23.4384C26.4478 23.32 26.4848 23.1914 26.4933 23.06V17.72L22.3333 16.21L19.1664 19.06L18.6367 19C9.03671 17.91 7.73465 9.21 7.73465 9.12L7.66844 8.64L10.8022 5.77L9.14706 2H3.32085Z" fill="#293286"/>
</svg>
